<svg width="121" height="121" viewBox="0 0 121 121" fill="none" xmlns="http://www.w3.org/2000/svg">
<path d="M102.123 67.8803L102.409 65.5696L105.128 65.9066C105.101 65.4649 105.111 65.0575 105.157 64.6844C105.319 63.3785 105.718 62.4294 106.355 61.8371C106.991 61.2449 107.843 61.0095 108.91 61.131L111.701 61.4768L111.414 63.7875L108.624 63.4417C108.122 63.3849 107.747 63.4629 107.499 63.6757C107.256 63.8891 107.096 64.3023 107.02 64.9153C106.973 65.2991 106.968 65.7071 107.007 66.1395L111.06 66.6419L110.774 68.9526L102.123 67.8803Z" fill="#E9CF8D"/>
<path d="M100.027 74.7845C100.48 73.5893 101.217 72.7543 102.236 72.2793C103.253 71.8093 104.371 71.8058 105.592 72.2689L105.803 72.349C106.621 72.6596 107.292 73.0951 107.814 73.6554C108.342 74.2176 108.67 74.8532 108.797 75.5622C108.927 76.2781 108.852 77.0076 108.57 77.7508C108.146 78.8656 107.462 79.6085 106.517 79.9795C105.57 80.3554 104.452 80.2985 103.161 79.8087L102.272 79.4714L104.242 74.2816C103.683 74.1499 103.176 74.1988 102.721 74.4283C102.264 74.6629 101.933 75.0513 101.727 75.5937C101.409 76.4323 101.464 77.2029 101.893 77.9055L100.289 78.5206C99.951 78.0189 99.7572 77.4398 99.7076 76.7833C99.663 76.1287 99.7694 75.4624 100.027 74.7845ZM106.81 77.0744C106.974 76.6425 106.961 76.2357 106.773 75.854C106.583 75.4774 106.231 75.1485 105.717 74.8673L104.568 77.8953L104.741 77.9611C105.227 78.134 105.648 78.1445 106.005 77.9925C106.366 77.8424 106.634 77.5364 106.81 77.0744Z" fill="#E9CF8D"/>
<path d="M97.6089 85.8554L100.938 91.3105L99.1539 93.6179L92.2571 88.2864L93.6812 86.4443L97.9136 89.7161L94.9574 84.7934L95.9133 83.5568L101.327 85.1554L97.1649 81.9378L98.5889 80.0957L105.486 85.4272L103.717 87.7155L97.6089 85.8554Z" fill="#E9CF8D"/>
<path d="M87.9118 96.6653L89.7398 102.018L87.7041 103.465L84.7261 93.2263L84.6177 92.74C84.3826 91.51 84.7532 90.5481 85.7295 89.8542C86.0053 89.6582 86.3151 89.5006 86.6587 89.3815L87.6809 90.8196L87.3873 91.0184C87.0284 91.2736 86.8002 91.5181 86.7029 91.7521C86.6012 91.9891 86.5902 92.2704 86.67 92.5958L86.8622 93.339L94.4153 98.6949L92.3731 100.147L87.9118 96.6653Z" fill="#E9CF8D"/>
<path d="M76.3728 99.7187L78.6529 108.133L75.1381 109.085C73.9924 109.395 73.0589 109.431 72.3376 109.193C71.6163 108.954 71.1531 108.457 70.948 107.7C70.8426 107.311 70.8774 106.926 71.0523 106.544C71.2234 106.17 71.5328 105.833 71.9803 105.533C71.348 105.582 70.8152 105.485 70.3817 105.24C69.9445 105.003 69.6598 104.64 69.5277 104.153C69.3156 103.37 69.4495 102.694 69.9296 102.124C70.4044 101.556 71.2017 101.12 72.3214 100.817L76.3728 99.7187ZM75.0717 103.819L74.6123 102.124L72.8004 102.615C72.0073 102.83 71.6859 103.215 71.8362 103.769C71.9893 104.335 72.4457 104.52 73.2054 104.325L75.0717 103.819ZM75.4805 105.328L74.0886 105.705C73.3034 105.929 72.9782 106.29 73.1131 106.787C73.196 107.093 73.3639 107.281 73.6167 107.352C73.8644 107.424 74.2085 107.4 74.6492 107.281L75.9167 106.937L75.4805 105.328Z" fill="#E9CF8D"/>
<path d="M63.6768 108.786L62.0105 108.715C61.2593 108.683 60.6046 108.529 60.0465 108.253C59.4884 107.976 59.0691 107.596 58.7886 107.111C58.5026 106.631 58.3728 106.08 58.3992 105.457C58.4382 104.54 58.8104 103.814 59.5158 103.279C60.2157 102.75 61.1506 102.51 62.3204 102.56L66.2726 102.727L65.9027 111.437L63.5684 111.338L63.6768 108.786ZM54.8264 102.241L57.1527 102.34L56.7827 111.049L54.4565 110.951L54.8264 102.241ZM63.7561 106.919L63.8593 104.488L62.2092 104.418C61.7477 104.398 61.389 104.49 61.133 104.694C60.8771 104.899 60.7412 105.186 60.7255 105.556C60.7095 105.932 60.8176 106.235 61.0498 106.465C61.2817 106.701 61.6337 106.828 62.106 106.848L63.7561 106.919Z" fill="#E9CF8D"/>
<path d="M42.1422 100.078C41.7543 99.8932 41.3883 99.8496 41.0442 99.9474C40.7001 100.045 40.4388 100.269 40.2604 100.618L38.2895 99.6785C38.5486 99.1474 38.9275 98.7271 39.4262 98.4174C39.9226 98.1126 40.4794 97.9556 41.0967 97.9463C41.7068 97.9397 42.3124 98.0796 42.9136 98.3662C44.0384 98.9025 44.7558 99.6818 45.0657 100.704C45.3733 101.731 45.2267 102.875 44.6258 104.136L44.5599 104.274C43.9821 105.486 43.1986 106.3 42.2093 106.715C41.2201 107.13 40.1631 107.069 39.0383 106.533C38.0541 106.064 37.4003 105.407 37.0769 104.563C36.7463 103.721 36.7981 102.832 37.2321 101.897L39.203 102.836C39.0186 103.248 38.9874 103.638 39.1097 104.005C39.2296 104.378 39.4883 104.659 39.8859 104.849C40.3756 105.082 40.832 105.079 41.2552 104.841C41.6711 104.605 42.0698 104.087 42.4512 103.287L42.5552 103.069C42.9412 102.259 43.0949 101.618 43.0163 101.146C42.9378 100.675 42.6464 100.318 42.1422 100.078Z" fill="#E9CF8D"/>
<path d="M32.6575 95.4687L26.9854 98.4125L24.8067 96.4736L30.6022 89.9617L32.3415 91.5097L28.7849 95.5058L33.9002 92.8969L35.0678 93.936L33.0988 99.2265L36.5964 95.2965L38.3357 96.8444L32.5403 103.356L30.3797 101.433L32.6575 95.4687Z" fill="#E9CF8D"/>
<path d="M23.4218 88.789C22.6789 89.2315 21.9315 89.4829 21.1797 89.5432C20.4278 89.6035 19.7333 89.4608 19.096 89.1152C18.456 88.765 17.9243 88.2346 17.501 87.524C16.899 86.5134 16.7175 85.5056 16.9565 84.5005C17.1927 83.4907 17.8195 82.6328 18.8368 81.9267L19.3408 81.6078C20.4898 80.9233 21.6037 80.6942 22.6825 80.9206C23.7568 81.1496 24.6155 81.804 25.2588 82.8838C25.902 83.9636 26.07 85.0326 25.7626 86.091C25.4526 87.1447 24.7023 88.0262 23.5118 88.7354L23.4218 88.789ZM22.3755 86.702C23.0861 86.2787 23.5509 85.8205 23.7699 85.3275C23.9842 84.8372 23.9429 84.3429 23.646 83.8445C23.3574 83.36 22.9474 83.0916 22.4161 83.0393C21.8801 82.9897 21.2038 83.2082 20.3871 83.6947C19.6903 84.1098 19.2315 84.5675 19.0107 85.0679C18.7899 85.5683 18.8265 86.0654 19.1207 86.5591C19.412 87.0483 19.8289 87.3126 20.3714 87.352C20.9092 87.3943 21.5772 87.1776 22.3755 86.702Z" fill="#E9CF8D"/>
<path d="M16.3981 70.1596L16.6274 71.1898L19.7809 70.4879L20.2868 72.7607L17.1333 73.4626L17.3591 74.4771L20.8889 75.466L21.4998 78.2106L16.4518 76.5196L12.9838 80.073L12.3571 77.2577L15.1404 74.7811L14.9549 73.9474L11.7777 74.6546L11.2719 72.3819L14.449 71.6747L14.26 70.8254L10.6872 69.7552L10.0606 66.9398L14.6499 68.6834L18.5539 64.9751L19.1753 67.7669L16.3981 70.1596Z" fill="#E9CF8D"/>
<path d="M18.851 57.121C18.7378 58.3943 18.2549 59.3974 17.4025 60.1305C16.5505 60.8582 15.4745 61.1642 14.1744 61.0486L13.9497 61.0286C13.0777 60.951 12.3142 60.7133 11.6594 60.3153C10.9992 59.9169 10.5119 59.3937 10.1975 58.7456C9.87821 58.0917 9.75376 57.3688 9.82418 56.577C9.92981 55.3893 10.3873 54.4891 11.1968 53.8762C12.0067 53.258 13.0991 53.0101 14.474 53.1324L15.421 53.2166L14.9292 58.7458C15.503 58.7213 15.9777 58.5371 16.3534 58.193C16.7296 57.8436 16.9434 57.38 16.9948 56.8022C17.0742 55.9088 16.8126 55.1818 16.21 54.6214L17.5873 53.5953C18.0486 53.9868 18.3919 54.4919 18.6173 55.1104C18.8374 55.7286 18.9153 56.3987 18.851 57.121ZM11.7013 56.7521C11.6604 57.2122 11.7822 57.6005 12.0668 57.9169C12.3519 58.2281 12.7798 58.4495 13.3505 58.5811L13.6374 55.3551L13.4528 55.3387C12.9382 55.3037 12.53 55.4076 12.228 55.6503C11.9206 55.8926 11.7451 56.2599 11.7013 56.7521Z" fill="#E9CF8D"/>
<path d="M15.0214 42.5414L14.1184 45.1872L20.5995 47.3991L19.8448 49.6103L13.3637 47.3984L12.4763 49.9984L10.7074 49.3947L13.2524 41.9377L15.0214 42.5414Z" fill="#E9CF8D"/>
<path d="M25.05 38.2199C24.3598 39.2959 23.4672 39.9613 22.3721 40.216C21.28 40.4663 20.1846 40.239 19.086 39.5344L18.8961 39.4126C18.1592 38.9399 17.5928 38.3755 17.1968 37.7195C16.7963 37.0606 16.6068 36.3712 16.6283 35.6512C16.6482 34.9237 16.8728 34.2255 17.302 33.5564C17.9458 32.5527 18.7683 31.9668 19.7695 31.7986C20.7736 31.6259 21.8566 31.9122 23.0185 32.6575L23.8187 33.1708L20.8217 37.8432C21.3415 38.0873 21.8476 38.1439 22.3399 38.013C22.8351 37.8776 23.2393 37.5658 23.5525 37.0775C24.0368 36.3225 24.1417 35.5571 23.8673 34.7812L25.5632 34.5099C25.7907 35.0706 25.861 35.6772 25.7742 36.3298C25.6829 36.9795 25.4414 37.6096 25.05 38.2199ZM18.8845 34.581C18.6351 34.9698 18.5632 35.3704 18.6688 35.7827C18.7773 36.1905 19.054 36.5849 19.4988 36.9659L21.2474 34.2398L21.0914 34.1397C20.6516 33.8704 20.2417 33.7733 19.8616 33.8486C19.477 33.9209 19.1513 34.1651 18.8845 34.581Z" fill="#E9CF8D"/>
<path d="M36.9891 25.5429L35.0997 26.9173L33.1282 24.207L30.7892 25.9084L32.7607 28.6188L30.8778 29.9884L25.7499 22.9389L27.6328 21.5693L29.6897 24.3969L32.0286 22.6955L29.9718 19.8679L31.8612 18.4935L36.9891 25.5429Z" fill="#E9CF8D"/>
<path d="M45.9871 20.9126C45.8117 20.7555 45.6457 20.5402 45.4889 20.2667C45.1876 21.0554 44.6157 21.6115 43.7733 21.9348C42.976 22.2408 42.2255 22.2642 41.522 22.005C40.8234 21.7438 40.3394 21.2622 40.07 20.5602C39.7389 19.6977 39.8033 18.9136 40.2631 18.2078C40.7279 17.5001 41.5635 16.9119 42.7701 16.443L43.7705 16.0591L43.5915 15.5927C43.4472 15.2167 43.2339 14.9533 42.9517 14.8027C42.6746 14.6502 42.3279 14.6538 41.9117 14.8136C41.5456 14.9541 41.291 15.1525 41.1478 15.4088C41.0095 15.6632 40.9991 15.9434 41.1165 16.2493L38.9427 17.0836C38.7618 16.6122 38.7398 16.1201 38.8767 15.6074C39.0136 15.0946 39.3045 14.6234 39.7494 14.1937C40.1924 13.759 40.7448 13.4147 41.4067 13.1606C42.4096 12.7757 43.3016 12.7239 44.0827 13.0052C44.8668 13.2795 45.4341 13.873 45.7843 14.7856L47.1383 18.3133C47.4397 19.0836 47.7717 19.6264 48.1343 19.9417L48.1834 20.0696L45.9871 20.9126ZM43.6092 20.0907C43.9301 19.9675 44.199 19.7837 44.4159 19.5394C44.6308 19.2901 44.7573 19.02 44.7953 18.7293L44.2584 17.3303L43.446 17.642C42.3579 18.0597 41.9231 18.658 42.1415 19.4372L42.1831 19.5679C42.287 19.8387 42.4679 20.0253 42.7259 20.1276C42.9838 20.23 43.2782 20.2177 43.6092 20.0907Z" fill="#E9CF8D"/>
<path d="M52.926 15.629L53.7723 10.0362L56.2459 9.69098L54.167 20.1496L54.039 20.6311C53.6804 21.8309 52.908 22.5135 51.7217 22.6791C51.3866 22.7259 51.0391 22.7229 50.6792 22.67L50.4353 20.9226L50.7875 20.8816C51.2237 20.8207 51.5389 20.7089 51.7331 20.5462C51.9327 20.3828 52.0721 20.1383 52.1514 19.8126L52.3236 19.0646L48.0911 10.8292L50.5726 10.4828L52.926 15.629Z" fill="#E9CF8D"/>
<path d="M67.3405 18.759L65.0247 18.517L65.3093 15.7926C64.8682 15.8275 64.4607 15.8254 64.0868 15.7864C62.778 15.6497 61.8214 15.2689 61.217 14.6441C60.6127 14.0194 60.361 13.1722 60.4619 12.1027L60.754 9.30614L63.0698 9.54807L62.7777 12.3446C62.7305 12.8473 62.8157 13.2207 63.0332 13.4649C63.2513 13.7037 63.6675 13.8552 64.2818 13.9193C64.6665 13.9595 65.0745 13.9563 65.506 13.9095L65.9305 9.84692L68.2462 10.0889L67.3405 18.759Z" fill="#E9CF8D"/>
<path d="M78.5115 12.797L80.6757 13.6557L77.4609 21.7586L75.2966 20.8999L77.2814 15.8974L72.5857 19.8243L70.4139 18.9626L73.6288 10.8598L75.8005 11.7215L73.8187 16.7165L78.5115 12.797Z" fill="#E9CF8D"/>
<path d="M91.966 22.7189L89.7418 21.0252L85.593 26.4736L83.7342 25.0582L87.8829 19.6098L85.6971 17.9454L86.8295 16.4583L93.0984 21.2318L91.966 22.7189Z" fill="#E9CF8D"/>
<path d="M96.7603 28.2754L97.7994 29.5799C98.2679 30.168 98.5808 30.7634 98.7381 31.366C98.8954 31.9686 98.8829 32.5348 98.7006 33.0645C98.5259 33.5952 98.1948 34.0546 97.7075 34.4428C96.9891 35.015 96.1969 35.2101 95.3307 35.028C94.4722 34.8467 93.6781 34.2981 92.9485 33.3823L90.4838 30.2882L97.3021 24.8567L98.7579 26.6841L96.7603 28.2754ZM95.2983 29.44L93.3952 30.956L94.4243 32.2479C94.7121 32.6092 95.017 32.8195 95.339 32.8789C95.661 32.9383 95.9669 32.8525 96.2568 32.6216C96.5508 32.3873 96.7087 32.1071 96.7303 31.7808C96.7562 31.4512 96.6219 31.1016 96.3274 30.7319L95.2983 29.44Z" fill="#E9CF8D"/>
<path d="M100.04 41.2051C100.225 41.5929 100.482 41.8572 100.811 41.998C101.14 42.1387 101.483 42.1295 101.842 41.9705L102.781 43.9414C102.246 44.1908 101.687 44.2787 101.104 44.2053C100.527 44.1296 99.9953 43.901 99.5099 43.5195C99.0318 43.1405 98.6494 42.6504 98.3628 42.0492C97.8266 40.9244 97.76 39.8673 98.163 38.8778C98.5708 37.8861 99.405 37.0897 100.666 36.4888L100.804 36.4229C102.016 35.8451 103.137 35.7064 104.167 36.0069C105.196 36.3073 105.979 37.02 106.516 38.1448C106.985 39.129 107.079 40.0509 106.799 40.9105C106.526 41.7727 105.926 42.4305 104.999 42.884L104.06 40.9131C104.463 40.7092 104.732 40.426 104.869 40.0634C105.01 39.6985 104.986 39.3173 104.797 38.9197C104.563 38.43 104.207 38.1446 103.728 38.0635C103.256 37.985 102.62 38.1364 101.82 38.5178L101.602 38.6218C100.792 39.0078 100.27 39.4087 100.033 39.8247C99.7974 40.2407 99.7996 40.7008 100.04 41.2051Z" fill="#E9CF8D"/>
<path d="M110.728 51.668L102.191 53.4319L101.722 51.1596L104.673 50.5499L104.375 49.106L101.085 48.0746L100.607 45.7628L104.329 46.9353C104.46 46.3761 104.7 45.9153 105.047 45.5529C105.396 45.1957 105.828 44.9638 106.343 44.8573C107.169 44.6867 107.911 44.8653 108.568 45.393C109.232 45.925 109.685 46.7253 109.928 47.794L110.728 51.668ZM105.944 48.6583L106.267 50.2206L108.428 49.7739L108.122 48.2906C108.038 47.8855 107.863 47.5791 107.595 47.3712C107.332 47.1621 107.048 47.0892 106.743 47.1522C106.438 47.2152 106.211 47.3884 106.061 47.6716C105.911 47.9549 105.872 48.2838 105.944 48.6583Z" fill="#E9CF8D"/>
<path d="M72.0534 62.0244L50.8943 73.5839L51.4631 49.4798L72.0534 62.0244Z" fill="#E9CF8D"/>
</svg>
