<svg width="11" height="20" viewBox="0 0 11 20" fill="none" xmlns="http://www.w3.org/2000/svg">
<path opacity="0.7" d="M6.32289 19.7165H3.43472C2.9523 19.7165 2.55987 19.2972 2.55987 18.7817V11.8212H0.874847C0.392429 11.8212 0 11.4018 0 10.8865V7.90388C0 7.38843 0.392429 6.96912 0.874847 6.96912H2.55987V5.47555C2.55987 3.99462 2.99509 2.73466 3.81834 1.8321C4.6453 0.925427 5.80099 0.446289 7.16045 0.446289L9.36312 0.450112C9.84471 0.450994 10.2365 0.870295 10.2365 1.38486V4.15413C10.2365 4.66959 9.84416 5.08889 9.36188 5.08889L7.87885 5.08947C7.42657 5.08947 7.3114 5.18636 7.28677 5.21606C7.24617 5.26531 7.19788 5.40454 7.19788 5.789V6.96898H9.25042C9.40495 6.96898 9.55465 7.0097 9.68331 7.08645C9.96084 7.25214 10.1334 7.56544 10.1334 7.90402L10.1323 10.8866C10.1323 11.4018 9.73986 11.8211 9.25744 11.8211H7.19788V18.7817C7.19788 19.2972 6.80531 19.7165 6.32289 19.7165ZM3.61717 18.5868H6.14044V11.3155C6.14044 10.9713 6.40256 10.6914 6.72454 10.6914H9.07499L9.07595 8.09883H6.7244C6.40242 8.09883 6.14044 7.8189 6.14044 7.47473V5.789C6.14044 5.34764 6.18241 4.84572 6.4942 4.46846C6.87095 4.01241 7.46468 3.95977 7.87857 3.95977L9.17915 3.95918V1.57952L7.15963 1.57599C4.97485 1.57599 3.61717 3.0703 3.61717 5.47555V7.47473C3.61717 7.81875 3.35518 8.09883 3.03321 8.09883H1.0573V10.6914H3.03321C3.35518 10.6914 3.61717 10.9713 3.61717 11.3155V18.5868ZM9.36105 1.57981H9.36119H9.36105Z" fill="white"/>
</svg>
