<svg width="18" height="20" viewBox="0 0 18 20" fill="none" xmlns="http://www.w3.org/2000/svg">
<g opacity="0.7">
<path d="M9.00575 5.42239C6.45455 5.4213 4.38833 7.62473 4.3873 10.3422C4.38627 13.062 6.45308 15.2648 9.00203 15.2659C11.5532 15.267 13.6194 13.0636 13.6205 10.3461C13.6215 7.6263 11.5547 5.42349 9.00575 5.42239ZM9.00268 13.5387C7.34662 13.538 6.00671 12.1076 6.00738 10.3429C6.00805 8.57813 7.34978 7.14885 9.00509 7.14956C10.6604 7.15027 12.0011 8.5807 12.0004 10.3454C12.0005 12.1102 10.6587 13.5394 9.00268 13.5387Z" fill="white"/>
<path d="M12.7132 0.818637C11.0579 0.735604 6.95786 0.73784 5.30102 0.815455C3.8451 0.887561 2.56074 1.26186 1.52501 2.36517C-0.205973 4.20909 0.0142454 6.69485 0.0128678 10.3402C0.0114579 14.0711 -0.184379 16.4991 1.51898 18.3166C3.25531 20.1684 5.62066 19.9272 8.99951 19.9287C12.4661 19.9301 13.6626 19.9331 14.8885 19.4277C16.5553 18.7386 17.8139 17.1511 17.9379 14.2986C18.0166 12.5331 18.0137 8.1628 17.9409 6.39643C17.7937 3.02914 16.0995 0.986335 12.7132 0.818637ZM15.3272 17.102C14.1925 18.3108 12.6189 18.2022 8.97842 18.2007C5.22998 18.1991 3.72683 18.2576 2.63048 17.0846C1.36776 15.7437 1.59723 13.5914 1.59846 10.3281C1.60013 5.91227 1.17626 2.73188 5.33337 2.50668C6.28849 2.47112 6.56963 2.45925 8.97388 2.46029L9.0076 2.48428C13.0027 2.48599 16.1373 2.04136 16.3238 6.47247C16.3662 7.48353 16.3758 7.78725 16.3748 10.3464C16.3726 14.2963 16.4424 15.9084 15.3272 17.102Z" fill="white"/>
<path d="M13.805 6.38034C14.4008 6.38059 14.884 5.86586 14.8842 5.23066C14.8845 4.59545 14.4017 4.08031 13.8059 4.08005C13.21 4.0798 12.7269 4.59453 12.7266 5.22973C12.7264 5.86494 13.2092 6.38008 13.805 6.38034Z" fill="white"/>
</g>
</svg>
