<svg width="67" height="68" viewBox="0 0 67 68" fill="none" xmlns="http://www.w3.org/2000/svg">
<path d="M33.5136 16.822C24.0136 16.822 16.3225 24.4504 16.3225 33.8546C16.3225 43.267 24.0219 50.8871 33.5136 50.8871C43.0137 50.8871 50.7047 43.2587 50.7047 33.8546C50.7047 24.4421 43.0053 16.822 33.5136 16.822ZM33.5136 44.9099C27.3468 44.9099 22.3553 39.9617 22.3553 33.8546C22.3553 27.7474 27.3496 22.7992 33.5136 22.7992C39.6776 22.7992 44.6719 27.7474 44.6719 33.8546C44.6747 39.9617 39.6804 44.9099 33.5136 44.9099Z" fill="#FFE588"/>
<path d="M47.3138 0.886248C41.1498 0.601358 25.8822 0.615188 19.7126 0.886248C14.2912 1.13795 9.50905 2.43517 5.65376 6.25491C-0.789407 12.6387 0.0341345 21.2407 0.0341345 33.8561C0.0341345 46.7675 -0.691699 55.1703 5.65376 61.4573C12.1221 67.8632 20.9298 67.0251 33.5118 67.0251C46.4205 67.0251 50.876 67.0334 55.4404 65.2826C61.6462 62.8956 66.3307 57.3997 66.7885 47.5281C67.0788 41.4181 67.0621 26.2941 66.7885 20.1814C66.2357 8.52851 59.9238 1.46156 47.3138 0.886248ZM57.0707 57.2337C52.8469 61.4186 46.9872 61.0452 33.4309 61.0452C19.4725 61.0452 13.8752 61.2499 9.79101 57.1922C5.08705 52.5538 5.93851 45.1051 5.93851 33.8119C5.93851 18.5301 4.35564 7.52447 19.8354 6.73895C23.392 6.61448 24.4389 6.573 33.3918 6.573L33.5174 6.65597C48.3942 6.65597 60.0661 5.11258 60.7669 20.4469C60.926 23.9458 60.9623 24.9968 60.9623 33.8533C60.9595 47.5226 61.2219 53.1014 57.0707 57.2337Z" fill="#FFE588"/>
<path d="M51.3859 20.1299C53.6045 20.1299 55.4031 18.3479 55.4031 16.1497C55.4031 13.9514 53.6045 12.1694 51.3859 12.1694C49.1672 12.1694 47.3687 13.9514 47.3687 16.1497C47.3687 18.3479 49.1672 20.1299 51.3859 20.1299Z" fill="#FFE588"/>
</svg>
