<svg width="28" height="26" viewBox="0 0 28 26" fill="none" xmlns="http://www.w3.org/2000/svg">
<path opacity="0.3" d="M21.47 0.200001C18.77 0.200001 16.52 2.09 16.52 5.42C16.52 8.66 19.49 10.82 22.91 9.29C23.54 14.78 20.75 21.08 18.77 23.6L21.2 25.4C25.16 21.35 27.86 12.98 27.86 8.39C27.86 3.8 25.61 0.200001 21.47 0.200001ZM5.63 0.199999C2.93 0.199999 0.680004 2.09 0.680003 5.42C0.680003 8.66 3.65 10.82 7.07 9.29C7.7 14.78 4.91 21.08 2.93 23.6L5.36 25.4C9.32 21.35 12.02 12.98 12.02 8.39C12.02 3.8 9.77 0.2 5.63 0.199999Z" fill="#FFE588"/>
</svg>
