<svg width="18" height="20" viewBox="0 0 18 20" fill="none" xmlns="http://www.w3.org/2000/svg">
<g opacity="0.7">
<path d="M13.1278 12.2099L13.1211 12.2698C11.4728 11.3926 11.3004 11.2758 11.0874 11.6164C10.9396 11.8522 10.5091 12.3871 10.3793 12.5454C10.2481 12.7012 10.1176 12.7132 9.89501 12.6051C9.67015 12.4851 8.94829 12.2329 8.09394 11.4168C7.42846 10.7807 6.98193 10.0008 6.85008 9.76084C6.63057 9.35609 7.09015 9.29871 7.5088 8.45439C7.58384 8.28649 7.54565 8.15452 7.49022 8.03534C7.43404 7.91535 6.98691 6.73958 6.79967 6.27087C6.61992 5.80376 6.43472 5.86286 6.29603 5.8628C5.86422 5.82263 5.54859 5.82889 5.27034 6.13746C4.0598 7.55563 4.36437 9.01924 5.39911 10.5759C7.43271 13.4174 8.51657 13.9409 10.4985 14.6678C11.0337 14.8496 11.5218 14.8242 11.9079 14.7652C12.3382 14.6926 13.2328 14.1892 13.4197 13.6255C13.6111 13.0618 13.6113 12.5939 13.5551 12.4859C13.4996 12.378 13.3527 12.3179 13.1278 12.2099Z" fill="white"/>
<path d="M15.39 3.52591C9.62787 -2.42085 0.0863666 1.88632 0.079449 10.2721C0.0788156 11.9483 0.489781 13.5831 1.27342 15.027L7.08908e-05 19.9542L4.74989 18.6352C10.6749 22.0525 17.9907 17.5212 17.9964 10.2846C17.9974 7.74473 17.0687 5.35398 15.3788 3.55709L15.39 3.52591ZM16.4985 10.2576C16.4917 16.3618 10.2086 20.1714 5.24154 17.0535L4.97171 16.8823L2.16006 17.6608L2.91461 14.7462L2.73554 14.4462C-0.354218 9.19473 3.20043 2.3347 9.05705 2.33721C11.0467 2.33807 12.9139 3.16657 14.3198 4.66664C15.7249 6.15392 16.4993 8.14634 16.4985 10.2576Z" fill="white"/>
</g>
</svg>
