<svg width="70" height="70" viewBox="0 0 70 70" fill="none" xmlns="http://www.w3.org/2000/svg">
<path d="M51.0625 41.4534L51.0362 41.667C44.6225 38.5452 43.9517 38.1293 43.1233 39.3427C42.5487 40.183 40.8746 42.0886 40.37 42.6526C39.8596 43.2081 39.3521 43.2508 38.4858 42.8662C37.6108 42.439 34.8021 41.5417 31.4771 38.6363C28.8871 36.3718 27.1487 33.5946 26.6354 32.7401C25.7808 31.2987 27.5687 31.0937 29.1962 28.0857C29.4879 27.4875 29.3392 27.0175 29.1233 26.5931C28.9046 26.1659 27.1633 21.9787 26.4342 20.3095C25.7342 18.646 25.0137 18.8568 24.4742 18.8568C22.7942 18.7144 21.5662 18.7371 20.4842 19.8366C15.7767 24.8898 16.9637 30.1024 20.9917 35.6455C28.9075 45.7631 33.125 47.626 40.8367 50.2124C42.9192 50.8589 44.8179 50.7678 46.32 50.557C47.9942 50.2978 51.4737 48.5033 52.2 46.4951C52.9437 44.487 52.9437 42.8207 52.725 42.4361C52.5092 42.0516 51.9375 41.838 51.0625 41.4534Z" fill="#FFE588"/>
<path d="M59.85 10.5218C37.4238 -10.6507 0.309167 4.70527 0.294583 34.574C0.294583 40.5443 1.89583 46.3665 4.94667 51.508L3.51583e-10 69.0601L18.4771 64.3544C41.5333 76.5173 69.9883 60.3666 70 34.5911C70 25.5445 66.3833 17.0305 59.8062 10.6329L59.85 10.5218ZM64.1725 34.4971C64.155 56.2392 39.7163 69.8177 20.3875 58.7202L19.3375 58.1107L8.4 60.8879L11.3313 50.5053L10.6342 49.4372C-1.39417 30.7372 12.425 6.29755 35.21 6.29755C42.9508 6.29755 50.2163 9.24569 55.6879 14.5865C61.1567 19.8818 64.1725 26.9772 64.1725 34.4971Z" fill="#FFE588"/>
</svg>
